<?xml version="1.0" standalone="no"?><!DOCTYPE svg PUBLIC "-//W3C//DTD SVG 1.1//EN" "http://www.w3.org/Graphics/SVG/1.1/DTD/svg11.dtd"><svg t="1591522824587" class="icon" viewBox="0 0 1024 1024" version="1.1" xmlns="http://www.w3.org/2000/svg" p-id="1219" xmlns:xlink="http://www.w3.org/1999/xlink" width="200" height="200"><defs><style type="text/css"></style></defs><path d="M602.453333 426.666667H810.666667V349.866667h-154.453334l-85.333333-142.08c-12.8-21.333333-35.84-35.84-62.293333-35.84-7.68 0-14.506667 1.28-21.333334 3.413333L256 247.466667V469.333333h76.8V312.746667l90.026667-28.16L256 938.666667h76.8l122.453333-346.026667L554.666667 725.333333v213.333334h76.8v-273.493334l-106.24-193.706666 31.146666-122.453334M597.333333 162.133333c42.666667 0 76.8-34.133333 76.8-76.8S640 8.533333 597.333333 8.533333 520.533333 42.666667 520.533333 85.333333 554.666667 162.133333 597.333333 162.133333z" fill="" p-id="1220"></path></svg>